PathFileType	4	(X/Y/Z)	C:\Users\Basilio\Documents\Thesis Gigler\squatting_fais\c3dfiles\039\SLS_pre_front5\markers_experimental.trc
DataRate	CameraRate	NumFrames	NumMarkers	Units	OrigDataRate	OrigDataStartFrame	OrigNumFrames
200.000000	200.000000	4	63	mm	200.000000	498	1992
Frame#	Time	FHD			LBHD			RBHD			C7			T10			LSHO			LUUPA			LMUPA			LDUPA			LLEP			LMEP			LUL			LRFIN			RSHO			RUPA1			RMUPA			RDUPA			RLEP			RMEP			RRAD			RUL			RUFIN			LASI			RASI			USACR			LSACR			RSACR			LTHI1			LTHI2			LTHI3			LTHI4			LLFC			LMFC			LTIB1			LTIB2			LTIB3			LTIB4			LLMAL			LMMAL			LHEE			LMT1			LMT2			LMT5			RTHI			RTHI2			RTHI3			RTHI4			RLFC			RMFC			RTIB1			RTIB2			RTIB3			RTIB4			RLMAL			RMMAL			RHEE			RMT1			RMT2			RMT5			LRAD			CLAV			*61			*62			
		X1	Y1	Z1	X2	Y2	Z2	X3	Y3	Z3	X4	Y4	Z4	X5	Y5	Z5	X6	Y6	Z6	X7	Y7	Z7	X8	Y8	Z8	X9	Y9	Z9	X10	Y10	Z10	X11	Y11	Z11	X12	Y12	Z12	X13	Y13	Z13	X14	Y14	Z14	X15	Y15	Z15	X16	Y16	Z16	X17	Y17	Z17	X18	Y18	Z18	X19	Y19	Z19	X20	Y20	Z20	X21	Y21	Z21	X22	Y22	Z22	X23	Y23	Z23	X24	Y24	Z24	X25	Y25	Z25	X26	Y26	Z26	X27	Y27	Z27	X28	Y28	Z28	X29	Y29	Z29	X30	Y30	Z30	X31	Y31	Z31	X32	Y32	Z32	X33	Y33	Z33	X34	Y34	Z34	X35	Y35	Z35	X36	Y36	Z36	X37	Y37	Z37	X38	Y38	Z38	X39	Y39	Z39	X40	Y40	Z40	X41	Y41	Z41	X42	Y42	Z42	X43	Y43	Z43	X44	Y44	Z44	X45	Y45	Z45	X46	Y46	Z46	X47	Y47	Z47	X48	Y48	Z48	X49	Y49	Z49	X50	Y50	Z50	X51	Y51	Z51	X52	Y52	Z52	X53	Y53	Z53	X54	Y54	Z54	X55	Y55	Z55	X56	Y56	Z56	X57	Y57	Z57	X58	Y58	Z58	X59	Y59	Z59	X60	Y60	Z60	X61	Y61	Z61	X62	Y62	Z62	X63	Y63	Z63	

499	2.49	-334.5271606445313	1762.12353515625	-648.7955932617189	-497.0474243164064	1740.457153320313	-763.9399414062501	-465.8353881835939	1745.197509765625	-625.9711914062501	-539.4960937500001	1570.44140625	-703.0911865234376	-541.2735595703126	1257.617065429688	-718.3852539062501	-469.892059326172	1590.005737304688	-862.568542480469	-299.8606262207032	1562.033081054688	-970.4752197265627	-279.4771728515626	1596.098510742188	-939.6759033203127	-231.3612518310547	1576.07763671875	-969.7896728515627	-165.5967102050782	1588.615844726563	-964.2102050781252	-156.7939453125	1519.230590820313	-930.329284667969	109.4218063354492	1641.398681640625	-957.6621704101565	191.1513214111328	1678.517700195313	-880.3130493164065	-417.3377075195314	1589.814331054688	-554.5075683593751	-242.3005371093751	1535.91064453125	-471.9003906250001	-219.6595306396485	1569.310424804688	-502.0391540527345	-174.7873229980469	1534.094848632813	-480.5518493652345	-114.2596588134766	1549.344116210938	-497.2007751464845	-110.5702209472657	1480.284301757813	-534.9816894531251	165.5397338867188	1598.356079101563	-601.0711669921876	170.5396575927735	1590.267211914063	-524.9485473632814	251.7743835449219	1634.40234375	-597.9949340820314	-356.5997009277344	1119.472290039063	-856.0024414062502	-341.1671752929688	1081.389404296875	-634.0412597656251	-538.1318969726564	1117.019409179688	-730.1754760742189	-537.8711547851564	1088.694091796875	-763.1879272460939	-532.4057006835939	1080.113403320313	-704.3843383789064	-234.9571533203126	918.259216308594	-945.539733886719	-152.737533569336	898.9035644531252	-937.4027099609377	-128.9023132324219	935.8335571289065	-918.5095214843752	-128.1058807373047	842.479431152344	-931.3362426757815	-29.11839866638184	771.2239990234377	-929.9692993164065	-0.1146185770630837	759.2235717773439	-815.2824707031252	122.2655792236328	718.6926879882814	-903.059509277344	116.2728424072266	649.3309936523439	-954.6547851562502	145.7249755859375	675.2637329101564	-933.6505126953127	205.8216857910157	621.0126342773439	-898.794860839844	303.7325134277344	476.4032287597657	-946.4167480468752	310.1186828613282	475.7206115722657	-858.503356933594	299.7179565429688	383.6994323730469	-918.0850219726565	453.7656250000001	554.8333740234376	-864.0117797851565	451.3051147460939	557.4773559570314	-906.3944091796877	443.9017333984376	516.3823242187501	-965.0056762695315	-335.0656738281251	800.2314453125002	-595.2013549804689	-284.5571289062501	756.5555419921876	-595.9002075195314	-254.3789062500001	766.9055175781251	-601.2458496093751	-293.8967285156251	672.6728515625001	-613.5213623046876	-305.6463623046876	533.8564453125001	-648.9978637695314	-267.0521240234376	539.8986206054689	-761.6080322265626	-276.7626037597657	325.7125854492188	-688.4966430664064	-367.4891052246094	267.2006835937501	-690.5029296875001	-323.1922912597657	254.2444763183594	-689.4990844726564	-308.1802978515626	209.7052917480469	-727.8804931640626	-384.1815185546876	120.7597045898438	-715.9415893554689	-350.0912475585938	142.0453186035157	-798.0156860351565	-451.419891357422	103.7475051879883	-772.7106933593752	-228.4288787841797	53.15316009521486	-777.1964111328127	-233.2066497802735	56.80766677856447	-731.2995605468751	-289.9653320312501	40.74895095825196	-681.1922607421876	110.7109298706055	1638.5625	-881.6895751953127	nan	nan	nan	nan	nan	nan	nan	nan	nan	
500	2.495	-334.4837951660157	1761.895629882813	-648.7245483398439	-496.7851562500001	1740.279663085938	-763.9073486328126	-465.8551025390626	1744.951293945313	-625.8692626953126	-539.5350952148439	1570.306396484375	-703.0404052734376	-541.3657836914064	1257.532836914063	-718.3966674804689	-469.842254638672	1589.803100585938	-862.5234985351565	-299.6997680664063	1561.803100585938	-970.4211425781252	-279.4216308593751	1595.885620117188	-939.6641235351565	-231.2986297607422	1575.783325195313	-969.6954345703127	-165.6947326660157	1588.425659179688	-964.0520629882815	-156.7104797363282	1518.828125	-930.3793945312502	109.5224533081055	1641.058227539063	-957.7393188476565	191.2554931640625	1678.124389648438	-880.4580078125002	-417.2212219238282	1589.527709960938	-554.5798339843751	-242.2947235107422	1535.624389648438	-471.8584289550782	-219.6492614746094	1569.132690429688	-501.928924560547	-174.8346405029297	1533.9345703125	-480.5476379394532	-114.2619400024414	1549.31640625	-497.3265075683595	-110.5592727661133	1480.230224609375	-534.9158935546876	165.4521636962891	1598.398315429688	-600.9708862304689	170.4820556640625	1590.166748046875	-524.7592163085939	251.7259979248047	1634.4814453125	-597.8640747070314	-356.7136535644532	1119.26513671875	-855.923278808594	-341.3739929199219	1081.169555664063	-634.0064697265626	-538.3112792968751	1116.700317382813	-730.2288818359376	-537.9986572265626	1088.531494140625	-763.2592773437501	-532.5176391601564	1079.823364257813	-704.4079589843751	-234.9067077636719	918.1618652343752	-945.5178222656252	-152.66552734375	898.9357910156252	-937.3386840820315	-128.8201599121094	935.7991943359377	-918.3365478515627	-128.0563507080078	842.4187011718752	-931.3110961914065	-28.94466590881348	771.2133789062502	-929.8437500000002	-0.09116778522729875	759.2525024414064	-815.1679687500002	122.3650131225586	718.7212524414064	-902.883728027344	116.4878997802735	649.4245605468751	-954.6191406250002	145.8062896728516	675.3025512695314	-933.4705810546877	205.8646240234376	621.3878173828126	-898.5449218750002	303.7633972167969	476.3829956054689	-946.291198730469	310.1004028320313	475.6569824218751	-858.4162597656252	299.6328125000001	383.6253051757813	-918.054626464844	453.9032592773439	554.6903076171876	-863.9082641601565	451.3618164062501	557.2897949218751	-906.3221435546877	443.9263610839845	516.3732910156251	-964.9104614257815	-335.0087890625001	799.988464355469	-595.0371093750001	-284.5504455566407	756.5007934570314	-595.6358642578126	-254.3198699951172	766.8692016601564	-601.0430908203126	-293.7907104492188	672.4170532226564	-613.0903320312501	-305.3071289062501	533.7325439453126	-648.7659912109376	-266.6596984863282	539.8088989257814	-761.2340087890626	-276.7085571289063	325.6793518066407	-688.2255859375001	-367.4445800781251	267.1582641601563	-690.3969116210939	-323.0686645507813	254.4325866699219	-688.7824707031251	-308.0907897949219	209.5684204101563	-727.6680908203126	-384.1754150390626	120.7480087280274	-715.8499145507814	-350.0275268554688	142.117919921875	-797.8455200195315	-451.4117736816407	103.7716522216797	-772.6331176757815	-228.4023132324219	53.26533889770509	-777.1164550781252	-233.2017974853516	56.81583786010744	-731.2807617187501	-289.9904785156251	40.71606445312501	-681.1773071289064	110.947982788086	1638.376342773438	-881.678161621094	nan	nan	nan	nan	nan	nan	nan	nan	nan	
501	2.5	-334.5127258300782	1761.638427734375	-648.6304321289064	-496.1063232421876	1740.09521484375	-764.1505126953126	-465.7892150878907	1744.759155273438	-625.7866210937501	-539.5366210937501	1570.1201171875	-703.0418090820314	-541.4448242187501	1257.331176757813	-718.4299316406251	-469.4364624023439	1589.56787109375	-862.3255004882815	-299.6957702636719	1561.672119140625	-970.3693847656252	-279.2838745117188	1595.649169921875	-939.6362304687502	-231.2283325195313	1575.538452148438	-969.662536621094	-165.4746856689453	1588.080444335938	-964.214782714844	-156.5978546142578	1518.493408203125	-930.3854980468752	109.5412292480469	1640.74462890625	-957.7419433593752	191.3644104003907	1677.846313476563	-880.6132812500002	-417.2290039062501	1589.152587890625	-554.4590454101564	-242.3311309814454	1535.520751953125	-471.7676696777345	-219.6384277343751	1568.95703125	-501.8758544921876	-174.9165191650391	1533.595703125	-480.5869445800782	-114.2424545288086	1549.178466796875	-497.2719726562501	-110.540153503418	1480.130126953125	-534.8468017578126	165.3891754150391	1598.438354492188	-600.7882080078126	170.4552001953125	1590.210083007813	-524.6101684570314	251.8247528076172	1634.822509765625	-597.7135009765626	-356.7855224609376	1119.077880859375	-855.909606933594	-341.4578247070313	1081.107543945313	-633.9933471679689	-538.4423828125001	1116.411499023438	-730.2368774414064	-538.0910034179689	1088.269653320313	-763.3005981445314	-532.6157836914064	1079.559326171875	-704.4728393554689	-234.7990417480469	918.0650024414065	-945.4661865234377	-152.6687164306641	898.8369750976565	-937.2488403320315	-128.8512573242188	935.7944946289065	-918.2085571289065	-127.8928146362305	842.4351806640627	-931.2510375976565	-28.82948684692384	771.2183837890627	-929.7298583984377	-0.05271319299936296	759.2793579101564	-815.0742187500002	122.4655227661133	718.7549438476564	-902.723815917969	116.2928237915039	648.6463012695314	-954.6047973632815	145.9080810546875	675.3623657226564	-933.2923583984377	205.9314117431641	621.3884277343751	-898.396179199219	303.8152770996094	476.3792724609376	-946.2250976562502	310.1081542968751	475.5572509765626	-858.415466308594	299.6430664062501	383.5957946777344	-918.0501098632815	453.963104248047	554.5045166015626	-863.7514648437502	451.4678649902345	557.1663818359376	-906.1382446289065	443.9140625000001	516.2199707031251	-964.7823486328127	-334.9665222167969	799.8240966796877	-594.9025878906251	-284.9682922363282	755.8828735351564	-595.7250976562501	-254.2922058105469	766.7064819335939	-600.7114868164064	-293.5571594238282	672.2789306640626	-612.7736206054689	-304.7620239257813	533.7824707031251	-648.2841796875001	-266.1056213378907	539.6839599609376	-760.8632202148439	-276.5779113769532	325.5397644042969	-687.9218139648439	-367.3446350097657	267.2622985839844	-689.9800415039064	-323.0960998535157	254.1432189941407	-688.9436645507814	-308.0335693359376	209.3712005615235	-727.3729248046876	-384.2121582031251	120.7615280151367	-715.7785034179689	-349.9156799316407	142.1902618408203	-797.6270141601565	-451.4270324707032	103.8046188354492	-772.5713500976565	-228.4125518798829	53.35973739624025	-777.0185546875002	-233.2308044433594	56.85792922973634	-731.2031860351564	-290.0409545898438	40.63186645507813	-681.1417846679689	111.1051330566407	1638.052856445313	-881.705017089844	nan	nan	nan	nan	nan	nan	nan	nan	nan	
502	2.505	-334.4609680175782	1761.509521484375	-648.6039428710939	-495.7754516601564	1739.934692382813	-764.2714233398439	-465.8172607421876	1744.538696289063	-625.7208251953126	-539.4976196289064	1569.89697265625	-702.9747314453126	-541.6199340820314	1257.044677734375	-718.4245605468751	-469.7382202148439	1589.466552734375	-862.4639282226565	-299.5725708007813	1561.388549804688	-970.3450317382815	-279.2482299804688	1595.44970703125	-939.6238403320315	-231.1576690673829	1575.274658203125	-969.590026855469	-165.5882110595703	1587.962158203125	-963.906677246094	-156.6126098632813	1518.053466796875	-930.311950683594	109.6065750122071	1640.321533203125	-957.8413085937502	191.5426330566407	1677.553344726563	-880.7720947265627	-417.3292236328126	1588.875610351563	-554.3121337890626	-241.9215393066407	1535.500854492188	-471.186248779297	-219.7109069824219	1568.7919921875	-501.8063964843751	-174.9054412841797	1533.361206054688	-480.4645080566407	-114.2941055297852	1549.067504882813	-497.2423095703126	-110.5365829467774	1480.0517578125	-534.6721801757814	165.4264068603516	1598.413208007813	-600.7274780273439	170.4359283447266	1590.156616210938	-524.4449462890626	251.7540283203126	1634.868896484375	-597.5169677734376	-356.8735656738282	1118.912109375	-855.8692626953127	-341.5582275390626	1080.927978515625	-633.9960937500001	-538.5896606445314	1116.085815429688	-730.2058715820314	-538.2476806640626	1088.043090820313	-763.3279418945314	-532.7429199218751	1079.294067382813	-704.4909667968751	-234.8174133300782	917.9666137695315	-945.4498291015627	-152.5091705322266	898.805847167969	-937.2166748046877	-128.795150756836	935.732849121094	-918.0887451171877	-127.7698287963867	842.458923339844	-931.2221679687502	-28.66374206542969	771.2353515625002	-929.6295166015627	-0.01581504940986634	759.2636108398439	-814.9683837890627	122.5876617431641	718.7318725585939	-902.6011352539065	116.3436813354492	648.7156982421876	-954.410827636719	145.968505859375	675.3842773437501	-933.2181396484377	205.9831085205079	621.3693847656251	-898.313171386719	303.8321228027344	476.3562011718751	-946.0986328125002	310.0565185546876	475.6291503906251	-858.2824707031252	299.6037597656251	383.5904541015626	-918.0114746093752	454.2479248046876	554.5815429687501	-863.2034912109377	451.5523071289064	556.9579467773439	-905.974060058594	443.9640502929689	516.1632080078126	-964.6025390625002	-334.9591979980469	799.707214355469	-594.7903442382814	-284.8866271972657	755.8018798828126	-595.4542236328126	-254.3059387207032	766.5539550781251	-600.3696289062501	-293.3370056152344	672.0538940429689	-612.4687500000001	-304.4166870117188	533.7165527343751	-647.9602661132814	-265.8179626464844	539.8800048828126	-760.2186889648439	-276.4248352050782	325.5048828125001	-687.6723022460939	-367.2107238769532	267.2947387695313	-689.7393798828126	-323.0784606933594	254.1593017578126	-688.6215209960939	-308.0039672851563	209.5085144042969	-727.1205444335939	-384.2322998046876	120.723861694336	-715.6932373046876	-349.8693847656251	142.2999420166016	-797.4053344726565	-451.4237670898439	103.7383346557617	-772.578796386719	-228.4400024414063	53.46995925903322	-777.0583496093752	-233.207748413086	56.72975540161134	-731.2760620117189	-290.0143737792969	40.56495666503907	-681.0567016601564	111.1586532592774	1638.04296875	-881.7315673828127	nan	nan	nan	nan	nan	nan	nan	nan	nan	
